<svg id="visual" viewBox="0 0 900 600" width="900" height="600" xmlns="http://www.w3.org/2000/svg" xmlns:xlink="http://www.w3.org/1999/xlink" version="1.1"><path d="M0 43L180 13L360 43L540 19L720 13L900 37L900 0L720 0L540 0L360 0L180 0L0 0Z" fill="#222528"></path><path d="M0 109L180 91L360 103L540 109L720 61L900 73L900 35L720 11L540 17L360 41L180 11L0 41Z" fill="#262d32"></path><path d="M0 127L180 109L360 121L540 127L720 79L900 97L900 71L720 59L540 107L360 101L180 89L0 107Z" fill="#28343c"></path><path d="M0 145L180 133L360 133L540 163L720 115L900 115L900 95L720 77L540 125L360 119L180 107L0 125Z" fill="#2a3d46"></path><path d="M0 235L180 241L360 175L540 259L720 241L900 235L900 113L720 113L540 161L360 131L180 131L0 143Z" fill="#2c4550"></path><path d="M0 391L180 379L360 271L540 379L720 319L900 385L900 233L720 239L540 257L360 173L180 239L0 233Z" fill="#2c4e5a"></path><path d="M0 415L180 433L360 319L540 403L720 379L900 433L900 383L720 317L540 377L360 269L180 377L0 389Z" fill="#2c5763"></path><path d="M0 445L180 457L360 373L540 451L720 397L900 457L900 431L720 377L540 401L360 317L180 431L0 413Z" fill="#2b606c"></path><path d="M0 493L180 523L360 415L540 487L720 427L900 493L900 455L720 395L540 449L360 371L180 455L0 443Z" fill="#296a74"></path><path d="M0 565L180 589L360 589L540 565L720 583L900 583L900 491L720 425L540 485L360 413L180 521L0 491Z" fill="#28737c"></path><path d="M0 601L180 601L360 601L540 601L720 601L900 601L900 581L720 581L540 563L360 587L180 587L0 563Z" fill="#277d83"></path></svg>