<svg id="visual" viewBox="0 0 960 540" width="960" height="540" xmlns="http://www.w3.org/2000/svg" xmlns:xlink="http://www.w3.org/1999/xlink" version="1.1"><g stroke-width="1" stroke-linejoin="bevel"><path d="M489.1 311L493.9 343.5L509.9 311Z" fill="#506d8a" stroke="#506d8a"></path><path d="M493.9 343.5L522.9 390L509.9 311Z" fill="#092e47" stroke="#092e47"></path><path d="M489.1 311L425.1 330.5L493.9 343.5Z" fill="#00253d" stroke="#00253d"></path><path d="M493.9 343.5L489.1 437L522.9 390Z" fill="#23425d" stroke="#23425d"></path><path d="M522.9 390L584.8 313.5L509.9 311Z" fill="#001c33" stroke="#001c33"></path><path d="M584.8 313.5L577.8 278L509.9 311Z" fill="#00253d" stroke="#00253d"></path><path d="M509.9 311L471.9 223.5L489.1 311Z" fill="#00122a" stroke="#00122a"></path><path d="M489.1 311L421.1 236.5L425.1 330.5Z" fill="#173852" stroke="#173852"></path><path d="M577.8 278L471.9 223.5L509.9 311Z" fill="#23425d" stroke="#23425d"></path><path d="M432.1 432.5L489.1 437L493.9 343.5Z" fill="#173852" stroke="#173852"></path><path d="M522.9 390L552.8 437L584.8 313.5Z" fill="#23425d" stroke="#23425d"></path><path d="M471.9 223.5L421.1 236.5L489.1 311Z" fill="#23425d" stroke="#23425d"></path><path d="M489.1 437L552.8 437L522.9 390Z" fill="#2e4c68" stroke="#2e4c68"></path><path d="M425.1 330.5L432.1 432.5L493.9 343.5Z" fill="#2e4c68" stroke="#2e4c68"></path><path d="M557.8 143L460.1 179L471.9 223.5Z" fill="#001c33" stroke="#001c33"></path><path d="M471.9 223.5L460.1 179L421.1 236.5Z" fill="#3a5773" stroke="#3a5773"></path><path d="M552.8 437L666.6 342.5L584.8 313.5Z" fill="#2e4c68" stroke="#2e4c68"></path><path d="M584.8 313.5L667.6 289L577.8 278Z" fill="#173852" stroke="#173852"></path><path d="M577.8 278L583.8 179.5L471.9 223.5Z" fill="#092e47" stroke="#092e47"></path><path d="M652.6 217.5L583.8 179.5L577.8 278Z" fill="#00253d" stroke="#00253d"></path><path d="M666.6 342.5L667.6 289L584.8 313.5Z" fill="#3a5773" stroke="#3a5773"></path><path d="M359.2 157.5L329.2 274L421.1 236.5Z" fill="#00253d" stroke="#00253d"></path><path d="M421.1 236.5L329.2 274L425.1 330.5Z" fill="#23425d" stroke="#23425d"></path><path d="M425.1 330.5L341.2 420L432.1 432.5Z" fill="#2e4c68" stroke="#2e4c68"></path><path d="M329.2 274L322.4 296L425.1 330.5Z" fill="#506d8a" stroke="#506d8a"></path><path d="M322.4 296L326.2 378.5L425.1 330.5Z" fill="#00122a" stroke="#00122a"></path><path d="M326.2 378.5L341.2 420L425.1 330.5Z" fill="#00253d" stroke="#00253d"></path><path d="M489.1 437L542.9 505.5L552.8 437Z" fill="#000000" stroke="#000000"></path><path d="M552.8 437L690.6 392L666.6 342.5Z" fill="#23425d" stroke="#23425d"></path><path d="M479.9 540L542.9 505.5L489.1 437Z" fill="#173852" stroke="#173852"></path><path d="M479.9 540L489.1 437L432.1 432.5Z" fill="#173852" stroke="#173852"></path><path d="M667.6 289L652.6 217.5L577.8 278Z" fill="#173852" stroke="#173852"></path><path d="M638.8 100.5L557.8 143L583.8 179.5Z" fill="#00122a" stroke="#00122a"></path><path d="M583.8 179.5L557.8 143L471.9 223.5Z" fill="#00122a" stroke="#00122a"></path><path d="M269.5 337.5L308.4 385.5L326.2 378.5Z" fill="#45627e" stroke="#45627e"></path><path d="M326.2 378.5L308.4 385.5L341.2 420Z" fill="#2e4c68" stroke="#2e4c68"></path><path d="M609.8 515.5L631.6 478.5L552.8 437Z" fill="#000000" stroke="#000000"></path><path d="M631.6 478.5L690.6 392L552.8 437Z" fill="#00253d" stroke="#00253d"></path><path d="M666.6 342.5L718.5 277L667.6 289Z" fill="#506d8a" stroke="#506d8a"></path><path d="M667.6 289L718.5 277L652.6 217.5Z" fill="#092e47" stroke="#092e47"></path><path d="M638.8 100.5L543.9 122L557.8 143Z" fill="#45627e" stroke="#45627e"></path><path d="M557.8 143L543.9 122L460.1 179Z" fill="#00253d" stroke="#00253d"></path><path d="M433.1 540L479.9 540L432.1 432.5Z" fill="#23425d" stroke="#23425d"></path><path d="M542.9 505.5L609.8 515.5L552.8 437Z" fill="#45627e" stroke="#45627e"></path><path d="M281.4 441L334.2 463.5L341.2 420Z" fill="#23425d" stroke="#23425d"></path><path d="M341.2 420L334.2 463.5L432.1 432.5Z" fill="#3a5773" stroke="#3a5773"></path><path d="M557.8 540L609.8 515.5L542.9 505.5Z" fill="#001c33" stroke="#001c33"></path><path d="M631.6 478.5L741.5 406L690.6 392Z" fill="#092e47" stroke="#092e47"></path><path d="M378.2 117L359.2 157.5L460.1 179Z" fill="#001c33" stroke="#001c33"></path><path d="M460.1 179L359.2 157.5L421.1 236.5Z" fill="#00253d" stroke="#00253d"></path><path d="M246.5 234L269.5 337.5L322.4 296Z" fill="#00122a" stroke="#00122a"></path><path d="M479.9 540L557.8 540L542.9 505.5Z" fill="#00122a" stroke="#00122a"></path><path d="M334.2 463.5L433.1 540L432.1 432.5Z" fill="#45627e" stroke="#45627e"></path><path d="M754.5 313.5L718.5 277L666.6 342.5Z" fill="#00253d" stroke="#00253d"></path><path d="M322.4 296L269.5 337.5L326.2 378.5Z" fill="#092e47" stroke="#092e47"></path><path d="M308.4 385.5L281.4 441L341.2 420Z" fill="#001c33" stroke="#001c33"></path><path d="M246.5 234L322.4 296L329.2 274Z" fill="#00253d" stroke="#00253d"></path><path d="M455.1 25.5L378.2 117L460.1 179Z" fill="#23425d" stroke="#23425d"></path><path d="M359.2 157.5L302.4 174.5L329.2 274Z" fill="#173852" stroke="#173852"></path><path d="M786.5 171.5L664.6 149L652.6 217.5Z" fill="#23425d" stroke="#23425d"></path><path d="M652.6 217.5L664.6 149L583.8 179.5Z" fill="#173852" stroke="#173852"></path><path d="M240.5 431L281.4 441L308.4 385.5Z" fill="#3a5773" stroke="#3a5773"></path><path d="M334.2 463.5L346.2 540L433.1 540Z" fill="#001c33" stroke="#001c33"></path><path d="M331.4 124L302.4 174.5L359.2 157.5Z" fill="#23425d" stroke="#23425d"></path><path d="M557.8 540L633.6 540L609.8 515.5Z" fill="#001c33" stroke="#001c33"></path><path d="M609.8 515.5L633.6 540L631.6 478.5Z" fill="#000000" stroke="#000000"></path><path d="M714.5 540L741.5 406L631.6 478.5Z" fill="#2e4c68" stroke="#2e4c68"></path><path d="M690.6 392L754.5 313.5L666.6 342.5Z" fill="#001c33" stroke="#001c33"></path><path d="M741.5 406L754.5 313.5L690.6 392Z" fill="#506d8a" stroke="#506d8a"></path><path d="M724.5 103L697.5 112.5L786.5 171.5Z" fill="#00122a" stroke="#00122a"></path><path d="M281.4 441L321.4 513.5L334.2 463.5Z" fill="#092e47" stroke="#092e47"></path><path d="M378.2 117L331.4 124L359.2 157.5Z" fill="#000000" stroke="#000000"></path><path d="M321.4 513.5L346.2 540L334.2 463.5Z" fill="#00122a" stroke="#00122a"></path><path d="M697.5 112.5L638.8 100.5L664.6 149Z" fill="#506d8a" stroke="#506d8a"></path><path d="M664.6 149L638.8 100.5L583.8 179.5Z" fill="#23425d" stroke="#23425d"></path><path d="M377.2 0L338.2 70.5L378.2 117Z" fill="#3a5773" stroke="#3a5773"></path><path d="M184.7 247L246.5 234L209.5 166.5Z" fill="#00122a" stroke="#00122a"></path><path d="M302.4 174.5L246.5 234L329.2 274Z" fill="#2e4c68" stroke="#2e4c68"></path><path d="M269.5 337.5L240.5 431L308.4 385.5Z" fill="#173852" stroke="#173852"></path><path d="M122.7 365L240.5 431L269.5 337.5Z" fill="#001c33" stroke="#001c33"></path><path d="M281.4 441L259.4 540L321.4 513.5Z" fill="#000000" stroke="#000000"></path><path d="M321.4 513.5L259.4 540L346.2 540Z" fill="#092e47" stroke="#092e47"></path><path d="M697.5 112.5L664.6 149L786.5 171.5Z" fill="#00253d" stroke="#00253d"></path><path d="M851.3 288.5L790.3 272L754.5 313.5Z" fill="#23425d" stroke="#23425d"></path><path d="M754.5 313.5L790.3 272L718.5 277Z" fill="#00253d" stroke="#00253d"></path><path d="M378.2 117L338.2 70.5L331.4 124Z" fill="#000000" stroke="#000000"></path><path d="M215.5 89L209.5 166.5L302.4 174.5Z" fill="#23425d" stroke="#23425d"></path><path d="M455.1 25.5L460.1 179L543.9 122Z" fill="#506d8a" stroke="#506d8a"></path><path d="M633.6 540L714.5 540L631.6 478.5Z" fill="#00253d" stroke="#00253d"></path><path d="M741.5 406L808.3 402L754.5 313.5Z" fill="#45627e" stroke="#45627e"></path><path d="M469.9 21.5L519.9 0L490.1 0Z" fill="#45627e" stroke="#45627e"></path><path d="M469.9 21.5L455.1 25.5L543.9 122Z" fill="#001c33" stroke="#001c33"></path><path d="M469.9 21.5L543.9 122L519.9 0Z" fill="#23425d" stroke="#23425d"></path><path d="M786.5 171.5L652.6 217.5L718.5 277Z" fill="#2e4c68" stroke="#2e4c68"></path><path d="M697.5 112.5L636.6 29.5L638.8 100.5Z" fill="#001c33" stroke="#001c33"></path><path d="M851.3 288.5L804.3 238.5L790.3 272Z" fill="#000000" stroke="#000000"></path><path d="M790.3 272L804.3 238.5L718.5 277Z" fill="#506d8a" stroke="#506d8a"></path><path d="M781.5 487.5L808.3 402L741.5 406Z" fill="#2e4c68" stroke="#2e4c68"></path><path d="M240.5 431L259.4 540L281.4 441Z" fill="#173852" stroke="#173852"></path><path d="M209.5 166.5L246.5 234L302.4 174.5Z" fill="#000000" stroke="#000000"></path><path d="M246.5 234L184.7 247L269.5 337.5Z" fill="#506d8a" stroke="#506d8a"></path><path d="M240.5 431L178.5 497.5L259.4 540Z" fill="#2e4c68" stroke="#2e4c68"></path><path d="M714.5 540L781.5 487.5L741.5 406Z" fill="#23425d" stroke="#23425d"></path><path d="M804.3 238.5L786.5 171.5L718.5 277Z" fill="#001c33" stroke="#001c33"></path><path d="M519.9 0L543.9 122L552.8 0Z" fill="#00122a" stroke="#00122a"></path><path d="M469.9 21.5L490.1 0L455.1 25.5Z" fill="#506d8a" stroke="#506d8a"></path><path d="M329.4 0L275.4 70.5L338.2 70.5Z" fill="#23425d" stroke="#23425d"></path><path d="M636.6 29.5L543.9 122L638.8 100.5Z" fill="#45627e" stroke="#45627e"></path><path d="M701.5 0L636.6 29.5L697.5 112.5Z" fill="#173852" stroke="#173852"></path><path d="M636.6 29.5L552.8 0L543.9 122Z" fill="#001c33" stroke="#001c33"></path><path d="M275.4 70.5L302.4 174.5L331.4 124Z" fill="#00122a" stroke="#00122a"></path><path d="M377.2 0L378.2 117L455.1 25.5Z" fill="#001c33" stroke="#001c33"></path><path d="M338.2 70.5L275.4 70.5L331.4 124Z" fill="#506d8a" stroke="#506d8a"></path><path d="M490.1 0L377.2 0L455.1 25.5Z" fill="#001c33" stroke="#001c33"></path><path d="M714.5 540L775.3 540L781.5 487.5Z" fill="#2e4c68" stroke="#2e4c68"></path><path d="M781.5 487.5L822.3 490.5L808.3 402Z" fill="#173852" stroke="#173852"></path><path d="M701.5 0L633.6 0L636.6 29.5Z" fill="#506d8a" stroke="#506d8a"></path><path d="M636.6 29.5L633.6 0L552.8 0Z" fill="#506d8a" stroke="#506d8a"></path><path d="M701.5 0L697.5 112.5L724.5 103Z" fill="#00253d" stroke="#00253d"></path><path d="M808.3 402L851.3 288.5L754.5 313.5Z" fill="#23425d" stroke="#23425d"></path><path d="M804.3 238.5L832.3 173L786.5 171.5Z" fill="#173852" stroke="#173852"></path><path d="M876.2 298.5L851.3 288.5L808.3 402Z" fill="#23425d" stroke="#23425d"></path><path d="M247.5 0L252.5 69.5L275.4 70.5Z" fill="#173852" stroke="#173852"></path><path d="M275.4 70.5L252.5 69.5L302.4 174.5Z" fill="#001c33" stroke="#001c33"></path><path d="M209.5 166.5L163.7 199.5L184.7 247Z" fill="#23425d" stroke="#23425d"></path><path d="M122.7 365L178.5 497.5L240.5 431Z" fill="#506d8a" stroke="#506d8a"></path><path d="M161.7 142L163.7 199.5L209.5 166.5Z" fill="#092e47" stroke="#092e47"></path><path d="M775.3 540L822.3 490.5L781.5 487.5Z" fill="#506d8a" stroke="#506d8a"></path><path d="M122.7 365L269.5 337.5L184.7 247Z" fill="#45627e" stroke="#45627e"></path><path d="M851.3 288.5L832.3 173L804.3 238.5Z" fill="#000000" stroke="#000000"></path><path d="M786.5 171.5L847.3 87.5L724.5 103Z" fill="#23425d" stroke="#23425d"></path><path d="M377.2 0L329.4 0L338.2 70.5Z" fill="#092e47" stroke="#092e47"></path><path d="M179.7 74.5L215.5 89L252.5 69.5Z" fill="#00122a" stroke="#00122a"></path><path d="M252.5 69.5L215.5 89L302.4 174.5Z" fill="#092e47" stroke="#092e47"></path><path d="M178.5 497.5L188.5 540L259.4 540Z" fill="#45627e" stroke="#45627e"></path><path d="M914.2 284L876.2 298.5L960 344.5Z" fill="#506d8a" stroke="#506d8a"></path><path d="M851.3 288.5L914.2 284L832.3 173Z" fill="#00253d" stroke="#00253d"></path><path d="M104.7 348.5L122.7 365L184.7 247Z" fill="#23425d" stroke="#23425d"></path><path d="M178.5 497.5L163.7 516.5L188.5 540Z" fill="#001c33" stroke="#001c33"></path><path d="M829.3 0L701.5 0L724.5 103Z" fill="#3a5773" stroke="#3a5773"></path><path d="M215.5 89L161.7 142L209.5 166.5Z" fill="#506d8a" stroke="#506d8a"></path><path d="M89.8 312.5L104.7 348.5L184.7 247Z" fill="#00122a" stroke="#00122a"></path><path d="M34.8 487.5L163.7 516.5L178.5 497.5Z" fill="#001c33" stroke="#001c33"></path><path d="M89.8 312.5L184.7 247L111.8 183.5Z" fill="#00122a" stroke="#00122a"></path><path d="M122.7 365L91.8 373L178.5 497.5Z" fill="#506d8a" stroke="#506d8a"></path><path d="M930.2 161.5L861.2 147L832.3 173Z" fill="#001c33" stroke="#001c33"></path><path d="M832.3 173L847.3 87.5L786.5 171.5Z" fill="#45627e" stroke="#45627e"></path><path d="M215.5 89L179.7 74.5L161.7 142Z" fill="#23425d" stroke="#23425d"></path><path d="M111.8 183.5L184.7 247L163.7 199.5Z" fill="#45627e" stroke="#45627e"></path><path d="M247.5 0L179.7 74.5L252.5 69.5Z" fill="#45627e" stroke="#45627e"></path><path d="M111.8 183.5L163.7 199.5L109.8 172Z" fill="#2e4c68" stroke="#2e4c68"></path><path d="M104.7 348.5L91.8 373L122.7 365Z" fill="#00122a" stroke="#00122a"></path><path d="M89.8 312.5L91.8 373L104.7 348.5Z" fill="#23425d" stroke="#23425d"></path><path d="M329.4 0L247.5 0L275.4 70.5Z" fill="#506d8a" stroke="#506d8a"></path><path d="M109.8 172L163.7 199.5L161.7 142Z" fill="#23425d" stroke="#23425d"></path><path d="M921.2 426L876.2 298.5L808.3 402Z" fill="#00122a" stroke="#00122a"></path><path d="M876.2 298.5L914.2 284L851.3 288.5Z" fill="#092e47" stroke="#092e47"></path><path d="M74.8 86.5L109.8 172L161.7 142Z" fill="#2e4c68" stroke="#2e4c68"></path><path d="M111.8 183.5L51.8 299L89.8 312.5Z" fill="#00253d" stroke="#00253d"></path><path d="M863.2 540L904.2 443.5L822.3 490.5Z" fill="#000000" stroke="#000000"></path><path d="M822.3 490.5L904.2 443.5L808.3 402Z" fill="#45627e" stroke="#45627e"></path><path d="M861.2 147L847.3 87.5L832.3 173Z" fill="#45627e" stroke="#45627e"></path><path d="M841.2 23.5L847.3 87.5L873.2 0Z" fill="#45627e" stroke="#45627e"></path><path d="M775.3 540L863.2 540L822.3 490.5Z" fill="#001c33" stroke="#001c33"></path><path d="M960 480.5L921.2 426L904.2 443.5Z" fill="#001c33" stroke="#001c33"></path><path d="M904.2 443.5L921.2 426L808.3 402Z" fill="#000000" stroke="#000000"></path><path d="M34.8 487.5L118.7 540L163.7 516.5Z" fill="#45627e" stroke="#45627e"></path><path d="M163.7 516.5L118.7 540L188.5 540Z" fill="#092e47" stroke="#092e47"></path><path d="M0 298L51.8 299L0 197.5Z" fill="#2e4c68" stroke="#2e4c68"></path><path d="M89.8 312.5L51.8 299L91.8 373Z" fill="#2e4c68" stroke="#2e4c68"></path><path d="M91.8 373L34.8 487.5L178.5 497.5Z" fill="#00122a" stroke="#00122a"></path><path d="M960 100L847.3 87.5L861.2 147Z" fill="#173852" stroke="#173852"></path><path d="M847.3 87.5L841.2 23.5L724.5 103Z" fill="#000000" stroke="#000000"></path><path d="M960 356L960 344.5L876.2 298.5Z" fill="#000000" stroke="#000000"></path><path d="M914.2 284L930.2 161.5L832.3 173Z" fill="#00253d" stroke="#00253d"></path><path d="M960 189.5L930.2 161.5L914.2 284Z" fill="#00122a" stroke="#00122a"></path><path d="M921.2 426L960 356L876.2 298.5Z" fill="#45627e" stroke="#45627e"></path><path d="M960 480.5L960 356L921.2 426Z" fill="#23425d" stroke="#23425d"></path><path d="M873.2 0L829.3 0L841.2 23.5Z" fill="#23425d" stroke="#23425d"></path><path d="M841.2 23.5L829.3 0L724.5 103Z" fill="#173852" stroke="#173852"></path><path d="M960 344.5L960 258L914.2 284Z" fill="#00253d" stroke="#00253d"></path><path d="M960 258L960 189.5L914.2 284Z" fill="#45627e" stroke="#45627e"></path><path d="M960 95.5L873.2 0L847.3 87.5Z" fill="#2e4c68" stroke="#2e4c68"></path><path d="M247.5 0L141.7 0L179.7 74.5Z" fill="#00122a" stroke="#00122a"></path><path d="M179.7 74.5L74.8 86.5L161.7 142Z" fill="#00253d" stroke="#00253d"></path><path d="M0 197.5L51.8 299L111.8 183.5Z" fill="#00253d" stroke="#00253d"></path><path d="M863.2 540L960 480.5L904.2 443.5Z" fill="#00122a" stroke="#00122a"></path><path d="M141.7 0L74.8 86.5L179.7 74.5Z" fill="#2e4c68" stroke="#2e4c68"></path><path d="M0 392L34.8 487.5L91.8 373Z" fill="#00122a" stroke="#00122a"></path><path d="M34.8 487.5L52.8 540L118.7 540Z" fill="#00253d" stroke="#00253d"></path><path d="M960 100L861.2 147L930.2 161.5Z" fill="#3a5773" stroke="#3a5773"></path><path d="M0 197.5L111.8 183.5L109.8 172Z" fill="#00122a" stroke="#00122a"></path><path d="M51.8 299L0 360.5L91.8 373Z" fill="#001c33" stroke="#001c33"></path><path d="M0 298L0 360.5L51.8 299Z" fill="#45627e" stroke="#45627e"></path><path d="M0 360.5L0 392L91.8 373Z" fill="#001c33" stroke="#001c33"></path><path d="M34.8 487.5L0 540L52.8 540Z" fill="#3a5773" stroke="#3a5773"></path><path d="M863.2 540L960 540L960 480.5Z" fill="#173852" stroke="#173852"></path><path d="M960 189.5L960 100L930.2 161.5Z" fill="#001c33" stroke="#001c33"></path><path d="M960 100L960 95.5L847.3 87.5Z" fill="#23425d" stroke="#23425d"></path><path d="M0 170L0 197.5L109.8 172Z" fill="#00122a" stroke="#00122a"></path><path d="M0 392L0 470.5L34.8 487.5Z" fill="#001c33" stroke="#001c33"></path><path d="M74.8 86.5L0 170L109.8 172Z" fill="#45627e" stroke="#45627e"></path><path d="M0 59.5L0 170L74.8 86.5Z" fill="#23425d" stroke="#23425d"></path><path d="M141.7 0L86.8 0L74.8 86.5Z" fill="#092e47" stroke="#092e47"></path><path d="M0 470.5L0 540L34.8 487.5Z" fill="#23425d" stroke="#23425d"></path><path d="M960 95.5L960 0L873.2 0Z" fill="#092e47" stroke="#092e47"></path><path d="M86.8 0L0 59.5L74.8 86.5Z" fill="#00122a" stroke="#00122a"></path><path d="M86.8 0L0 0L0 59.5Z" fill="#000000" stroke="#000000"></path></g></svg>