<?xml version="1.0" standalone="no"?>
<!DOCTYPE svg PUBLIC "-//W3C//DTD SVG 20010904//EN"
 "http://www.w3.org/TR/2001/REC-SVG-20010904/DTD/svg10.dtd">
<svg version="1.0" xmlns="http://www.w3.org/2000/svg"
 width="128.000000pt" height="128.000000pt" viewBox="0 0 128.000000 128.000000"
 preserveAspectRatio="xMidYMid meet">

<g transform="translate(0.000000,128.000000) scale(0.100000,-0.100000)"
fill="#000000" stroke="none">
<path d="M214 1266 c-97 -31 -180 -119 -204 -216 -7 -30 -10 -171 -8 -435 3
-390 3 -390 27 -439 31 -63 84 -116 147 -147 l49 -24 415 0 c404 0 416 1 461
21 60 28 119 87 150 150 l24 49 0 415 0 415 -24 49 c-31 63 -90 122 -150 150
-44 20 -60 21 -446 23 -306 2 -410 -1 -441 -11z m350 -503 c38 -101 72 -183
76 -183 4 0 38 82 76 183 l69 182 83 3 c45 2 82 1 82 -1 0 -2 14 -133 30 -292
16 -159 30 -297 30 -307 0 -17 -7 -19 -72 -16 l-73 3 -17 155 c-9 85 -17 164
-18 175 -1 21 -5 14 -85 -192 l-47 -123 -58 0 -57 0 -64 165 c-35 91 -65 161
-67 155 -2 -5 -11 -83 -20 -173 l-17 -162 -72 -3 c-66 -3 -73 -1 -73 16 0 11
13 149 30 308 16 159 30 290 30 292 0 2 37 2 82 0 l83 -3 69 -182z"/>
</g>
</svg>
