<?xml version="1.0" standalone="no"?>
<!DOCTYPE svg PUBLIC "-//W3C//DTD SVG 20010904//EN"
 "http://www.w3.org/TR/2001/REC-SVG-20010904/DTD/svg10.dtd">
<svg version="1.0" xmlns="http://www.w3.org/2000/svg"
 width="573.000000pt" height="573.000000pt" viewBox="0 0 573.000000 573.000000"
 preserveAspectRatio="xMidYMid meet">
<metadata>
Created by potrace 1.14, written by Peter Selinger 2001-2017
</metadata>
<g transform="translate(0.000000,573.000000) scale(0.100000,-0.100000)"
fill="#000000" stroke="none">
<path d="M685 5718 c-142 -27 -300 -148 -363 -278 -67 -138 -62 62 -60 -2606
l3 -2419 23 -59 c58 -153 175 -270 327 -328 l60 -23 2158 -3 c1908 -2 2166 0
2224 13 203 47 373 229 403 430 7 47 10 845 8 2465 l-3 2395 -26 67 c-64 163
-174 272 -338 332 -56 21 -60 21 -2211 22 -1333 1 -2174 -2 -2205 -8z m1212
-1680 c55 -84 146 -225 203 -313 127 -198 258 -401 365 -565 45 -69 109 -168
142 -220 193 -305 255 -400 257 -400 2 0 24 36 50 80 26 44 109 171 183 283
74 111 170 256 212 322 43 66 180 280 306 475 125 195 247 385 271 423 l44 67
235 0 235 0 0 -1285 0 -1285 -330 0 -330 0 0 616 c0 378 -4 614 -9 612 -6 -1
-80 -109 -167 -238 -199 -297 -615 -908 -667 -979 l-40 -54 -151 230 c-149
225 -302 460 -536 821 -66 101 -122 192 -125 203 -4 10 -9 19 -13 19 -4 0 -6
-277 -4 -615 l3 -615 -321 0 -320 0 0 1278 c0 703 3 1282 7 1285 3 4 95 7 203
7 l197 0 100 -152z"/>
</g>
</svg>
